<svg width="320" height="192" viewBox="0 0 320 192" fill="none" xmlns="http://www.w3.org/2000/svg">
  <rect width="320" height="192" rx="12" fill="url(#gradient4)"/>
  <defs>
    <linearGradient id="gradient4" x1="0%" y1="0%" x2="100%" y2="100%">
      <stop offset="0%" style="stop-color:#064e3b;stop-opacity:1" />
      <stop offset="50%" style="stop-color:#065f46;stop-opacity:1" />
      <stop offset="100%" style="stop-color:#047857;stop-opacity:1" />
    </linearGradient>
  </defs>
  
  <!-- Settings Interface -->
  <rect x="20" y="20" width="280" height="152" rx="8" fill="rgba(255,255,255,0.05)" stroke="rgba(255,255,255,0.1)" stroke-width="1"/>
  
  <!-- Settings Panel -->
  <rect x="30" y="30" width="280" height="132" rx="6" fill="rgba(255,255,255,0.03)"/>
  
  <!-- Settings Items -->
  <rect x="40" y="40" width="260" height="20" rx="4" fill="rgba(255,255,255,0.1)"/>
  <rect x="40" y="70" width="260" height="20" rx="4" fill="rgba(255,255,255,0.05)"/>
  <rect x="40" y="100" width="260" height="20" rx="4" fill="rgba(255,255,255,0.05)"/>
  <rect x="40" y="130" width="260" height="20" rx="4" fill="rgba(255,255,255,0.05)"/>
  
  <!-- Toggle Switches -->
  <circle cx="280" cy="50" r="8" fill="rgba(16,185,129,0.5)"/>
  <circle cx="280" cy="80" r="8" fill="rgba(255,255,255,0.2)"/>
  <circle cx="280" cy="110" r="8" fill="rgba(255,255,255,0.2)"/>
  <circle cx="280" cy="140" r="8" fill="rgba(255,255,255,0.2)"/>
  
  <!-- Labels -->
  <text x="50" y="54" fill="rgba(255,255,255,0.8)" font-family="Arial" font-size="10">Privacy Controls</text>
  <text x="50" y="84" fill="rgba(255,255,255,0.6)" font-family="Arial" font-size="10">Security Settings</text>
  <text x="50" y="114" fill="rgba(255,255,255,0.6)" font-family="Arial" font-size="10">System Preferences</text>
  <text x="50" y="144" fill="rgba(255,255,255,0.6)" font-family="Arial" font-size="10">Accessibility</text>
  
  <text x="160" y="180" text-anchor="middle" fill="rgba(255,255,255,0.5)" font-family="Arial" font-size="12">System Settings</text>
</svg> 