<svg width="320" height="192" viewBox="0 0 320 192" fill="none" xmlns="http://www.w3.org/2000/svg">
  <rect width="320" height="192" rx="12" fill="url(#gradient6)"/>
  <defs>
    <linearGradient id="gradient6" x1="0%" y1="0%" x2="100%" y2="100%">
      <stop offset="0%" style="stop-color:#312e81;stop-opacity:1" />
      <stop offset="50%" style="stop-color:#4338ca;stop-opacity:1" />
      <stop offset="100%" style="stop-color:#6366f1;stop-opacity:1" />
    </linearGradient>
  </defs>
  
  <!-- Store Interface -->
  <rect x="20" y="20" width="280" height="152" rx="8" fill="rgba(255,255,255,0.05)" stroke="rgba(255,255,255,0.1)" stroke-width="1"/>
  
  <!-- App Grid -->
  <rect x="30" y="30" width="280" height="132" rx="6" fill="rgba(255,255,255,0.03)"/>
  
  <!-- App Icons -->
  <rect x="40" y="40" width="50" height="50" rx="8" fill="rgba(139,92,246,0.3)"/>
  <rect x="100" y="40" width="50" height="50" rx="8" fill="rgba(59,130,246,0.3)"/>
  <rect x="160" y="40" width="50" height="50" rx="8" fill="rgba(16,185,129,0.3)"/>
  <rect x="220" y="40" width="50" height="50" rx="8" fill="rgba(245,158,11,0.3)"/>
  
  <rect x="40" y="100" width="50" height="50" rx="8" fill="rgba(239,68,68,0.3)"/>
  <rect x="100" y="100" width="50" height="50" rx="8" fill="rgba(168,85,247,0.3)"/>
  <rect x="160" y="100" width="50" height="50" rx="8" fill="rgba(34,197,94,0.3)"/>
  <rect x="220" y="100" width="50" height="50" rx="8" fill="rgba(251,146,60,0.3)"/>
  
  <!-- Privacy Badges -->
  <circle cx="65" cy="65" r="4" fill="#10b981"/>
  <circle cx="125" cy="65" r="4" fill="#10b981"/>
  <circle cx="185" cy="65" r="4" fill="#f59e0b"/>
  <circle cx="245" cy="65" r="4" fill="#ef4444"/>
  
  <!-- App Names -->
  <text x="65" y="85" text-anchor="middle" fill="rgba(255,255,255,0.7)" font-family="Arial" font-size="8">TauMail</text>
  <text x="125" y="85" text-anchor="middle" fill="rgba(255,255,255,0.7)" font-family="Arial" font-size="8">TauCloud</text>
  <text x="185" y="85" text-anchor="middle" fill="rgba(255,255,255,0.7)" font-family="Arial" font-size="8">Browser</text>
  <text x="245" y="85" text-anchor="middle" fill="rgba(255,255,255,0.7)" font-family="Arial" font-size="8">Store</text>
  
  <text x="160" y="180" text-anchor="middle" fill="rgba(255,255,255,0.5)" font-family="Arial" font-size="12">Tau Store</text>
</svg> 