<svg width="320" height="192" viewBox="0 0 320 192" fill="none" xmlns="http://www.w3.org/2000/svg">
  <rect width="320" height="192" rx="12" fill="url(#gradient3)"/>
  <defs>
    <linearGradient id="gradient3" x1="0%" y1="0%" x2="100%" y2="100%">
      <stop offset="0%" style="stop-color:#0f172a;stop-opacity:1" />
      <stop offset="50%" style="stop-color:#1e293b;stop-opacity:1" />
      <stop offset="100%" style="stop-color:#334155;stop-opacity:1" />
    </linearGradient>
  </defs>
  
  <!-- Cloud Interface -->
  <rect x="20" y="20" width="280" height="152" rx="8" fill="rgba(255,255,255,0.05)" stroke="rgba(255,255,255,0.1)" stroke-width="1"/>
  
  <!-- File Grid -->
  <rect x="30" y="30" width="280" height="132" rx="6" fill="rgba(255,255,255,0.03)"/>
  
  <!-- File Icons -->
  <rect x="40" y="40" width="40" height="50" rx="4" fill="rgba(59,130,246,0.2)"/>
  <rect x="90" y="40" width="40" height="50" rx="4" fill="rgba(16,185,129,0.2)"/>
  <rect x="140" y="40" width="40" height="50" rx="4" fill="rgba(245,158,11,0.2)"/>
  <rect x="190" y="40" width="40" height="50" rx="4" fill="rgba(239,68,68,0.2)"/>
  <rect x="240" y="40" width="40" height="50" rx="4" fill="rgba(139,92,246,0.2)"/>
  
  <rect x="40" y="100" width="40" height="50" rx="4" fill="rgba(59,130,246,0.2)"/>
  <rect x="90" y="100" width="40" height="50" rx="4" fill="rgba(16,185,129,0.2)"/>
  <rect x="140" y="100" width="40" height="50" rx="4" fill="rgba(245,158,11,0.2)"/>
  <rect x="190" y="100" width="40" height="50" rx="4" fill="rgba(239,68,68,0.2)"/>
  
  <!-- Storage Bar -->
  <rect x="30" y="160" width="260" height="8" rx="4" fill="rgba(255,255,255,0.1)"/>
  <rect x="30" y="160" width="180" height="8" rx="4" fill="rgba(59,130,246,0.5)"/>
  
  <text x="160" y="180" text-anchor="middle" fill="rgba(255,255,255,0.5)" font-family="Arial" font-size="12">TauCloud Storage</text>
</svg> 