<svg width="320" height="192" viewBox="0 0 320 192" fill="none" xmlns="http://www.w3.org/2000/svg">
  <rect width="320" height="192" rx="12" fill="url(#gradient2)"/>
  <defs>
    <linearGradient id="gradient2" x1="0%" y1="0%" x2="100%" y2="100%">
      <stop offset="0%" style="stop-color:#1e1b4b;stop-opacity:1" />
      <stop offset="50%" style="stop-color:#312e81;stop-opacity:1" />
      <stop offset="100%" style="stop-color:#4338ca;stop-opacity:1" />
    </linearGradient>
  </defs>
  
  <!-- Email Interface -->
  <rect x="20" y="20" width="280" height="152" rx="8" fill="rgba(255,255,255,0.05)" stroke="rgba(255,255,255,0.1)" stroke-width="1"/>
  
  <!-- Sidebar -->
  <rect x="30" y="30" width="80" height="132" rx="6" fill="rgba(255,255,255,0.08)"/>
  <rect x="40" y="40" width="60" height="8" rx="4" fill="rgba(139,92,246,0.3)"/>
  <rect x="40" y="55" width="60" height="8" rx="4" fill="rgba(255,255,255,0.1)"/>
  <rect x="40" y="70" width="60" height="8" rx="4" fill="rgba(255,255,255,0.1)"/>
  <rect x="40" y="85" width="60" height="8" rx="4" fill="rgba(255,255,255,0.1)"/>
  
  <!-- Email List -->
  <rect x="120" y="30" width="170" height="132" rx="6" fill="rgba(255,255,255,0.03)"/>
  
  <!-- Email Items -->
  <rect x="130" y="40" width="150" height="20" rx="4" fill="rgba(255,255,255,0.1)"/>
  <rect x="130" y="70" width="150" height="20" rx="4" fill="rgba(255,255,255,0.05)"/>
  <rect x="130" y="100" width="150" height="20" rx="4" fill="rgba(255,255,255,0.05)"/>
  <rect x="130" y="130" width="150" height="20" rx="4" fill="rgba(255,255,255,0.05)"/>
  
  <!-- Encryption Badge -->
  <circle cx="140" cy="50" r="4" fill="#10b981"/>
  <text x="150" y="54" fill="rgba(255,255,255,0.8)" font-family="Arial" font-size="10">Encrypted Email</text>
  
  <text x="160" y="180" text-anchor="middle" fill="rgba(255,255,255,0.5)" font-family="Arial" font-size="12">TauMail Interface</text>
</svg> 