<svg preserveAspectRatio="none" overflow="visible" style="display: block;" width="14" height="14" viewBox="0 0 14 14" fill="none" xmlns="http://www.w3.org/2000/svg">
<g id="microscope" clip-path="url(#clip0_0_5)">
<path id="Vector" d="M3.5 10.5003H8.16667M1.75 12.8338H12.25M8.16667 12.8338C9.24963 12.8338 10.2882 12.4036 11.054 11.6377C11.8198 10.8719 12.25 9.83319 12.25 8.75014C12.25 7.66709 11.8198 6.62839 11.054 5.86256C10.2882 5.09672 9.24963 4.66648 8.16667 4.66648H7.58333M5.25 8.16676H6.41667M7 3.49972V1.74958C7 1.59486 6.93854 1.44647 6.82915 1.33707C6.71975 1.22766 6.57138 1.1662 6.41667 1.1662H5.25C5.09529 1.1662 4.94692 1.22766 4.83752 1.33707C4.72812 1.44647 4.66667 1.59486 4.66667 1.74958V3.49972M5.25 7C4.94058 7 4.64383 6.87707 4.42504 6.65826C4.20625 6.43945 4.08333 6.14268 4.08333 5.83324V3.49972H7.58333V5.83324C7.58333 6.14268 7.46042 6.43945 7.24162 6.65826C7.02283 6.87707 6.72609 7 6.41667 7H5.25Z" stroke="#D4A843" stroke-width="2" stroke-linecap="round"/>
</g>
<defs>
<clipPath id="clip0_0_5">
<rect width="14" height="14" fill="white"/>
</clipPath>
</defs>
</svg>
